<?xml version="1.0" encoding="UTF-8" standalone="no"?>
<!-- Created with Inkscape (http://www.inkscape.org/) -->

<svg
   width="1000"
   height="400"
   viewBox="0 0 1000 400"
   version="1.1"
   id="svg5"
   xml:space="preserve"
   inkscape:version="1.2.2 (b0a8486541, 2022-12-01)"
   sodipodi:docname="logo.svg"
   xmlns:inkscape="http://www.inkscape.org/namespaces/inkscape"
   xmlns:sodipodi="http://sodipodi.sourceforge.net/DTD/sodipodi-0.dtd"
   xmlns:xlink="http://www.w3.org/1999/xlink"
   xmlns="http://www.w3.org/2000/svg"
   xmlns:svg="http://www.w3.org/2000/svg"><sodipodi:namedview
     id="namedview7"
     pagecolor="#ffffff"
     bordercolor="#000000"
     borderopacity="0.25"
     inkscape:showpageshadow="2"
     inkscape:pageopacity="0.0"
     inkscape:pagecheckerboard="0"
     inkscape:deskcolor="#d1d1d1"
     inkscape:document-units="px"
     showgrid="false"
     inkscape:zoom="0.99157499"
     inkscape:cx="447.77249"
     inkscape:cy="160.35096"
     inkscape:window-width="1920"
     inkscape:window-height="1007"
     inkscape:window-x="1920"
     inkscape:window-y="0"
     inkscape:window-maximized="1"
     inkscape:current-layer="layer1" /><defs
     id="defs2"><linearGradient
       inkscape:collect="always"
       id="linearGradient3231"><stop
         style="stop-color:#38b7ff;stop-opacity:1;"
         offset="0"
         id="stop3227" /><stop
         style="stop-color:#0075df;stop-opacity:1;"
         offset="1"
         id="stop3229" /></linearGradient><linearGradient
       inkscape:collect="always"
       id="linearGradient3211"><stop
         style="stop-color:#000000;stop-opacity:1;"
         offset="0"
         id="stop3207" /><stop
         style="stop-color:#000000;stop-opacity:0;"
         offset="1"
         id="stop3209" /></linearGradient><linearGradient
       id="linearGradient468"
       inkscape:swatch="gradient"><stop
         style="stop-color:#000000;stop-opacity:1"
         offset="0"
         id="stop464" /><stop
         style="stop-color:#ff6600;stop-opacity:0;"
         offset="1"
         id="stop466" /></linearGradient><linearGradient
       id="linearGradient454"
       inkscape:swatch="gradient"><stop
         style="stop-color:#000000;stop-opacity:1"
         offset="0"
         id="stop450" /><stop
         style="stop-color:#ff6600;stop-opacity:0;"
         offset="1"
         id="stop452" /></linearGradient><linearGradient
       inkscape:collect="always"
       xlink:href="#linearGradient3211"
       id="linearGradient3215"
       x1="295.54285"
       y1="198.053"
       x2="976.71237"
       y2="198.053"
       gradientUnits="userSpaceOnUse" /><linearGradient
       inkscape:collect="always"
       xlink:href="#linearGradient3231"
       id="linearGradient3225"
       x1="351.63626"
       y1="44.987106"
       x2="926.79443"
       y2="384.61328"
       gradientUnits="userSpaceOnUse"
       gradientTransform="translate(0,5.2713196)" /><linearGradient
       inkscape:collect="always"
       xlink:href="#linearGradient3231"
       id="linearGradient3255"
       x1="-45.208515"
       y1="-0.70682323"
       x2="385.98041"
       y2="446.09717"
       gradientUnits="userSpaceOnUse" /></defs><g
     inkscape:label="Layer 1"
     inkscape:groupmode="layer"
     id="layer1"><path
       style="fill:url(#linearGradient3255);stroke-width:0.466619;fill-opacity:1"
       d="m 183.41362,314.81615 c -25.53318,-1.87321 -44.25114,-7.11234 -51.57961,-14.43708 -3.69286,-3.69098 -3.7147,-3.81967 -3.7147,-21.88548 V 263.03265 H 91.893854 c -49.51995,0 -45.89942,2.06118 -45.89942,-26.13064 0,-22.5379 1.69154,-26.13064 12.30287,-26.13064 h 2.62892 v -3.73295 -3.73295 h -2.62892 c -10.61133,0 -12.30287,-3.59275 -12.30287,-26.13065 0,-22.53789 1.69154,-26.13064 12.30287,-26.13064 h 2.62892 v -3.73295 -3.73295 h -2.62892 c -10.61133,0 -12.30287,-3.59274 -12.30287,-26.13064 0,-20.406145 0.95491,-23.554525 7.75334,-25.563185 2.78425,-0.82263 138.492926,-0.82263 141.277176,0 6.79843,2.00866 7.75334,5.15704 7.75334,25.563185 0,22.5379 -1.69154,26.13064 -12.30288,26.13064 h -2.62892 v 3.73295 3.73295 h 2.62892 c 4.84652,0 9.43766,2.52835 10.8699,5.98607 0.55997,1.3519 0.55997,1.3519 7.17917,1.66795 33.94397,1.6207 57.93008,9.19717 60.88186,19.23069 1.25351,4.26082 0.74651,116.19123 -0.5388,118.95139 -5.74533,12.338 -46.15294,20.81912 -85.45392,17.93587 z m 29.87155,-7.46484 c 22.26461,-1.42322 41.62282,-6.27355 47.66891,-11.94376 l 1.55139,-1.45495 v -13.82681 c 0,-7.60474 -0.093,-13.82681 -0.20663,-13.82681 -0.11365,0 -0.90385,0.41137 -1.756,0.91415 -24.79168,14.62745 -95.44414,14.16695 -124.60767,-0.81217 -0.76112,-0.39093 -0.40207,27.14648 0.36829,28.24632 5.93576,8.47448 44.24559,14.79662 76.98171,12.70403 z m 0,-37.33429 c 22.42143,-1.44765 41.59159,-6.24914 47.66681,-11.93896 l 1.55349,-1.45495 V 242.7963 c 0,-7.60474 -0.093,-13.82681 -0.20663,-13.82681 -0.11365,0 -0.90385,0.41137 -1.756,0.91415 -24.79168,14.62744 -95.44414,14.16695 -124.60767,-0.81217 -0.76112,-0.39093 -0.40207,27.14648 0.36829,28.24632 5.93695,8.47618 44.32019,14.80804 76.98171,12.69923 z M 128.11931,236.90201 V 218.23726 H 91.935164 c -36.18416,0 -36.18416,0 -37.3295,1.14534 -1.80371,1.80372 -1.80371,33.2351 0,35.03882 1.14534,1.14533 1.14534,1.14533 37.3295,1.14533 h 36.184146 z m -66.047746,10.05351 c -1.13604,-1.13605 -1.14534,-1.21761 -1.14534,-10.05351 0,-11.99412 -0.79527,-11.19885 11.19885,-11.19885 11.99412,0 11.19885,-0.79527 11.19885,11.19885 0,11.99412 0.79527,11.19885 -11.19885,11.19885 -8.8359,0 -8.91746,-0.009 -10.05351,-1.14534 z m 29.8636,0 c -1.79125,-1.79124 -1.79125,-18.31578 0,-20.10702 1.79124,-1.79125 18.315766,-1.79125 20.107006,0 1.13605,1.13604 1.14534,1.21761 1.14534,10.05351 0,11.99412 0.79527,11.19885 -11.19885,11.19885 -8.835896,0 -8.917456,-0.009 -10.053496,-1.14534 z M 213.28517,232.68753 c 22.44724,-1.44931 41.64361,-6.24817 47.64854,-11.91155 l 1.57176,-1.48236 v -13.82681 c 0,-7.60474 -0.093,-13.82681 -0.20663,-13.82681 -0.11365,0 -0.90385,0.41137 -1.756,0.91415 -24.79168,14.62744 -95.44414,14.16695 -124.60767,-0.81217 -0.76112,-0.39093 -0.40207,27.14648 0.36829,28.24632 5.93695,8.47618 44.32019,14.80804 76.98171,12.69923 z M 83.323924,207.03842 v -3.73295 h -7.4659 -7.4659 v 3.73295 3.73295 h 7.4659 7.4659 z m 44.795386,0 v -3.73295 H 109.45456 90.789824 v 3.73295 3.73295 h 18.664736 18.66475 z m 0,-19.19388 c 0,-9.85073 0.29636,-10.99647 3.7422,-14.46749 7.39193,-7.44593 29.08012,-13.25064 54.35182,-14.5469 1.53984,-0.079 -27.18425,-0.18331 -63.83131,-0.23184 -66.631016,-0.0882 -66.631016,-0.0882 -67.776356,1.05711 -1.80371,1.80371 -1.80371,33.2351 0,35.03881 1.14534,1.14534 1.14534,1.14534 37.3295,1.14534 h 36.184146 z m -66.047746,-0.61621 c -1.79124,-1.79124 -1.79124,-18.31577 0,-20.10701 1.79124,-1.79125 18.31578,-1.79125 20.10702,0 1.79124,1.79124 1.79124,18.31577 0,20.10701 -1.79124,1.79125 -18.31578,1.79125 -20.10702,0 z m 29.8636,0 c -1.79125,-1.79124 -1.79125,-18.31577 0,-20.10701 1.79124,-1.79125 18.315766,-1.79125 20.107006,0 1.79125,1.79124 1.79125,18.31577 0,20.10701 -1.79124,1.79125 -18.315766,1.79125 -20.107006,0 z m 121.342046,8.13221 c 22.5825,-1.49896 41.67397,-6.27179 47.6565,-11.91405 2.87329,-2.70986 1.41287,-5.10763 -5.01615,-8.23566 -27.19804,-13.23314 -98.32391,-11.76849 -117.92201,2.42829 -13.00968,9.42417 33.90472,20.46789 75.28166,17.72142 z M 83.323924,147.31123 v -3.73295 h -7.4659 -7.4659 v 3.73295 3.73295 h 7.4659 7.4659 z m 74.658976,0 v -3.73295 H 124.38636 90.789824 v 3.73295 3.73295 h 33.596536 33.59654 z m 22.3977,0 v -3.73295 h -7.4659 -7.4659 v 3.73295 3.73295 h 7.4659 7.4659 z m 13.78645,-12.34418 c 1.80372,-1.80372 1.80372,-33.2351 0,-35.038825 -1.8111,-1.8111 -137.750276,-1.8111 -139.561386,0 -1.80371,1.803725 -1.80371,33.235105 0,35.038825 1.81111,1.8111 137.750286,1.8111 139.561386,0 z m -132.095486,-7.4659 c -1.79124,-1.79124 -1.79124,-18.31578 0,-20.10702 1.79124,-1.79124 18.31578,-1.79124 20.10702,0 1.79124,1.79124 1.79124,18.31578 0,20.10702 -1.79124,1.79124 -18.31578,1.79124 -20.10702,0 z m 29.8636,0 c -1.13605,-1.13604 -1.14534,-1.21761 -1.14534,-10.05351 0,-11.99412 -0.79527,-11.19885 11.198836,-11.19885 11.99412,0 11.19885,-0.79527 11.19885,11.19885 0,11.99412 0.79527,11.19885 -11.19885,11.19885 -8.835896,0 -8.917456,-0.009 -10.053496,-1.14534 z m 28.718246,-2.58761 v -3.73295 h 26.13064 26.13065 v 3.73295 3.73295 h -26.13065 -26.13064 z m 0,-14.9318 v -3.73295 h 26.13064 26.13065 v 3.73295 3.73295 h -26.13065 -26.13064 z"
       id="path3247" /><text
       xml:space="preserve"
       style="font-style:normal;font-variant:normal;font-weight:normal;font-stretch:normal;font-size:168.676px;font-family:'Russo One';-inkscape-font-specification:'Russo One, Normal';font-variant-ligatures:normal;font-variant-caps:normal;font-variant-numeric:normal;font-variant-east-asian:normal;fill:url(#linearGradient3225);fill-opacity:1;stroke:none;stroke-width:14.0564;stroke-opacity:1"
       x="297.51077"
       y="262.36093"
       id="text279"><tspan
         sodipodi:role="line"
         id="tspan277"
         x="297.51077"
         y="262.36093"
         style="font-style:normal;font-variant:normal;font-weight:normal;font-stretch:normal;font-size:168.676px;font-family:'Russo One';-inkscape-font-specification:'Russo One, Normal';font-variant-ligatures:normal;font-variant-caps:normal;font-variant-numeric:normal;font-variant-east-asian:normal;fill:url(#linearGradient3225);fill-opacity:1;stroke:none;stroke-width:14.0564;stroke-opacity:1">SimDBS</tspan></text></g></svg>
